<svg width="15" height="19" viewBox="0 0 15 19" fill="none" xmlns="http://www.w3.org/2000/svg">
<path d="M14.381 1.39973V16.3809L13.5715 16.7857V1.40474H1.42866V16.7857L0.619141 16.3809V1.39973C0.619141 0.95541 0.987238 0.595215 1.42863 0.595215H13.5716C14.0186 0.595215 14.381 0.954581 14.381 1.39973Z" fill="#4C525A"/>
<path d="M7.90778 8.78297C8.32659 8.68167 8.70075 8.44349 8.89873 8.02505C9.30337 7.16981 8.89674 6.56677 8.03159 6.11507C7.90722 6.05013 7.94426 6.06751 7.5913 5.90471C7.26425 5.75401 7.29255 5.76729 7.18563 5.71132C6.66021 5.43631 6.51472 5.2193 6.68095 4.86796C6.88519 4.43628 7.81908 4.46209 8.1469 4.69458L8.47706 4.92873L8.94536 4.2684L8.61519 4.03425C8.42883 3.90209 8.18028 3.80302 7.90778 3.74966V3.02393H7.09826V3.73229C6.61715 3.80865 6.17181 4.05124 5.9492 4.52174C5.54553 5.37492 5.95009 5.97834 6.81023 6.42854C6.93545 6.49408 6.90557 6.48006 7.25238 6.63987C7.58535 6.79345 7.55041 6.77706 7.65692 6.83267C8.18695 7.1094 8.33354 7.32679 8.16697 7.67883C7.96273 8.11051 7.02885 8.0847 6.70103 7.85221L6.37087 7.61806L5.90257 8.27839L6.23273 8.51254C6.45461 8.66989 6.76463 8.78033 7.09826 8.82257V9.50012H7.90778V8.78297Z" fill="#4C525A"/>
<path d="M11.1431 11.1191H3.85742V11.9287H11.1431V11.1191Z" fill="#4C525A"/>
<path d="M8.71456 13.5474H3.85742V14.3569H8.71456V13.5474Z" fill="#4C525A"/>
<path d="M4.8342 16.381L2.64273 18.5725L2.07031 18.0001L4.26178 15.8086L4.8342 16.381Z" fill="#4C525A"/>
<path d="M3.21537 18.0001L2.64295 18.5725L0.619141 16.5487V16.2134L1.0239 15.8086L3.21537 18.0001Z" fill="#4C525A"/>
<path d="M8.07248 16.381L5.88101 18.5725L5.30859 18.0001L7.50006 15.8086L8.07248 16.381Z" fill="#4C525A"/>
<path d="M4.26187 15.8086L6.45334 18.0001L5.88092 18.5725L3.68945 16.381L4.26187 15.8086Z" fill="#4C525A"/>
<path d="M11.3108 16.381L9.11929 18.5725L8.54688 18.0001L10.7383 15.8086L11.3108 16.381Z" fill="#4C525A"/>
<path d="M7.50015 15.8086L9.69162 18.0001L9.1192 18.5725L6.92773 16.381L7.50015 15.8086Z" fill="#4C525A"/>
<path d="M11.7847 18.0001L12.3571 18.5725L14.3809 16.5487V16.2134L13.9761 15.8086L11.7847 18.0001Z" fill="#4C525A"/>
<path d="M10.7379 15.8086L12.9294 18.0001L12.357 18.5725L10.1655 16.381L10.7379 15.8086Z" fill="#4C525A"/>
</svg>
